PathFileType	4	(X/Y/Z)	/Users/visionmauri/2_8_1_f_Sports2D/2_8_1_f_Sports2D_m_person00.trc
DataRate	CameraRate	NumFrames	NumMarkers	Units	OrigDataRate	OrigDataStartFrame	OrigNumFrames
30.0	30.0	7	22	m	30.0	43	350
Frame#	Time	Hip			RHip			RKnee			RAnkle			RBigToe			RSmallToe			RHeel			LHip			LKnee			LAnkle			LBigToe			LSmallToe			LHeel			Neck			Head			Nose			RShoulder			RElbow			RWrist			LShoulder			LElbow			LWrist			
		X1	Y1	Z1	X2	Y2	Z2	X3	Y3	Z3	X4	Y4	Z4	X5	Y5	Z5	X6	Y6	Z6	X7	Y7	Z7	X8	Y8	Z8	X9	Y9	Z9	X10	Y10	Z10	X11	Y11	Z11	X12	Y12	Z12	X13	Y13	Z13	X14	Y14	Z14	X15	Y15	Z15	X16	Y16	Z16	X17	Y17	Z17	X18	Y18	Z18	X19	Y19	Z19	X20	Y20	Z20	X21	Y21	Z21	X22	Y22	Z22
43	1.4374403056351481	0.6985467845033795	0.8303362703568157	0.0301	0.8089118298967906	0.8162760159869309	0.0301	0.9014389426918272	0.38455935114171186	0.129	0.9906118815166166	-0.05383793294755122	0.023	1.0230101958030728	-0.038791681064555474	0.2179	1.0882763606450339	-0.062839215924415	0.1804	0.9985055272668975	-0.13176024119815946	-0.0119	0.6024142686205796	0.782048720487895	0.0301	0.6752662390795976	0.5091642127215922	0.129	0.7334974297226867	0.28395092752332873	0.023	0.7663132571786168	0.212556045966091	0.2179	0.704693139695573	0.19324281268458268	0.1804	0.7663910420576233	0.2240369834461439	-0.0119	0.5713513573896573	1.4201513701000135	0.0008	0.5060849801161896	1.6214313275307846	0.0655	0.5469419301523242	1.4844066545489178	0.1076	0.7782316448402519	1.3999170832537196	-0.01275	0.9401189472382602	1.089075758380928	0.0702	0.9320049997450662	0.9825863730708253	0.1076	0.41109945428065214	1.3238555936169358	-0.01275	0.3390401799816103	0.9839195934295097	0.0702	0.35579822441293196	0.8181470479840779	0.1076
44	1.4708691499522446	0.697811008273734	0.8231337501653007	0.0301	0.8085502943197022	0.81331490783828	0.0301	0.9008613782513994	0.38638055536560734	0.129	0.989320881959979	-0.05234531878013764	0.023	1.0286668678930844	-0.03983727975044005	0.2179	1.0880775585320068	-0.06319079307190116	0.1804	0.9959515421497603	-0.13181640903608882	-0.0119	0.6032954847048472	0.7740544039240271	0.0301	0.6847809777809933	0.4871004670825639	0.129	0.75447575390618	0.2368836173314049	0.023	0.7910475574430037	0.15118832860584805	0.2179	0.7206873214961709	0.1768630600482663	0.1804	0.7821192704152593	0.1902393057581842	-0.0119	0.5634029735521068	1.4117637459878363	0.0008	0.498951037820163	1.6167432609900991	0.0655	0.541019992974236	1.4827173677613703	0.1076	0.7708121351009202	1.396287684526078	-0.01275	0.9276974602754149	1.0868613500274542	0.0702	0.9280754855460482	0.9708526043096375	0.1076	0.40579473157904095	1.3125048301907136	-0.01275	0.34216483066470865	0.9788114166115347	0.0702	0.3551172995168699	0.8150517202929299	0.1076
45	1.504297994269341	0.6979102375752612	0.8161654654694335	0.0301	0.8084684378174412	0.8077837482111833	0.0301	0.9006872634866496	0.3871016148153438	0.129	0.9896103893298176	-0.050969835464592786	0.023	1.02812990719053	-0.04298512158233498	0.2179	1.0883147477332582	-0.06443066048273506	0.1804	0.9946463939390217	-0.13160552963004243	-0.0119	0.605073082618114	0.7645410063920476	0.0301	0.6914126607474186	0.4758619369873279	0.129	0.7662996114356283	0.20633909150145377	0.023	0.8108354010239758	0.11172902566173225	0.2179	0.7439137918499984	0.1539281743176311	0.1804	0.7902289196609101	0.1706480422639738	-0.0119	0.5586615699713932	1.4062945922552064	0.0008	0.4935528841808076	1.6087085469077242	0.0655	0.5349597661662305	1.479334259726943	0.1076	0.7658594701276753	1.391026200530037	-0.01275	0.9188952667393028	1.084172752619309	0.0702	0.927190759267589	0.9624854483608801	0.1076	0.4015073976147134	1.3012814753250976	-0.01275	0.3427508662878163	0.9732694738831863	0.0702	0.3528700265928578	0.8113846172010357	0.1076
46	1.5377268385864375	0.69733104606364	0.8128343270876274	0.0301	0.807574838162561	0.8052977415312316	0.0301	0.9001996940110739	0.38851074840441896	0.129	0.9901038557612933	-0.04938439242996412	0.023	1.0241549947993376	-0.04447669812329874	0.2179	1.0888004572998395	-0.0654788405943927	0.1804	0.9947585099383761	-0.13176474537106975	-0.0119	0.6057981333315624	0.7614451099146412	0.0301	0.6934756998859714	0.47905918619075366	0.129	0.7647612435088674	0.2118250568382385	0.023	0.8153984144720553	0.11577785118438708	0.2179	0.7553332840236676	0.15464292879344466	0.1804	0.7866313470986966	0.18312763245830102	-0.0119	0.5551206699182991	1.4033041022413848	0.0008	0.4889634382452296	1.601687452791686	0.0655	0.530305172386286	1.473410976781124	0.1076	0.7613285984014649	1.386487721028822	-0.01275	0.9126813582911555	1.0818881322703782	0.0702	0.9274299706483294	0.9578024588684707	0.1076	0.3980498737677133	1.292777522916801	-0.01275	0.3421404032132411	0.9677375395771565	0.0702	0.35068881156769993	0.8070652858047586	0.1076
47	1.571155682903534	0.6944705576831339	0.8141437691651123	0.0301	0.8050078496605299	0.8080262007284958	0.0301	0.8984230098722793	0.39376131544883436	0.129	0.9894445213650324	-0.04514700020992158	0.023	1.0208710841992104	-0.0412530505001168	0.2179	1.0888977037584362	-0.06440064485993596	0.1804	0.994564371963204	-0.13018461886804827	-0.0119	0.6041649542358536	0.7660283180468525	0.0301	0.6923253625847554	0.4874712782658116	0.129	0.7518930291471645	0.2516667798068258	0.023	0.8128993096831142	0.1308476876455658	0.2179	0.7519659322615395	0.17235206198698566	0.1804	0.7756142034858119	0.21686964632230354	-0.0119	0.5495537080652739	1.4016286036975298	0.0008	0.4838920484514888	1.598139521490473	0.0655	0.5256224800463166	1.4660572290827196	0.1076	0.7556339793317238	1.383544798521452	-0.01275	0.9062530274117389	1.08248215978546	0.0702	0.9274757404347167	0.9546849282663689	0.1076	0.3942339847878489	1.2870045128024952	-0.01275	0.342615862311318	0.9645217229039118	0.0702	0.348701325046779	0.8032754132673513	0.1076
48	1.6045845272206303	0.6906509972854035	0.817170241677994	0.0301	0.8014970998307118	0.8108560941625442	0.0301	0.8956496890560302	0.40319260888372377	0.129	0.9888075383856785	-0.038844707324354556	0.023	1.0185741290489483	-0.03694879694447119	0.2179	1.0879466115302678	-0.062222703049627126	0.1804	0.9942318562288682	-0.12506046691456968	-0.0119	0.6023111860494018	0.7702461008373674	0.0301	0.6900517461272372	0.4929730893204803	0.129	0.736249516556713	0.29957317000881617	0.023	0.812352542763648	0.13592258669160287	0.2179	0.7457655459671249	0.18263076695599031	0.1804	0.7689975304735458	0.23358561970889047	-0.0119	0.5433935932437638	1.4001027676683249	0.0008	0.4777591119400481	1.5928459534999928	0.0655	0.5181494242206203	1.4601834097944855	0.1076	0.7501169990392311	1.3810983947237627	-0.01275	0.8997602515983943	1.0853077624868366	0.0702	0.928403239653519	0.9498131044793169	0.1076	0.3905646637382806	1.2822085823503437	-0.01275	0.3435672667353952	0.9630725172309267	0.0702	0.34601972528140074	0.798963841960379	0.1076
49	1.6380133715377267	0.6867908132846622	0.8197002641945352	0.0301	0.7973757200536601	0.8123116203348899	0.0301	0.8933400496624989	0.41264547941475194	0.129	0.9894929753023877	-0.034389250508571945	0.023	1.0159922644441275	-0.03736592456404009	0.2179	1.0851095509329607	-0.06158148256279017	0.1804	0.9947316314668531	-0.11880523843319506	-0.0119	0.6012728710920714	0.7706773053412659	0.0301	0.6872865006760684	0.4951117503713206	0.129	0.726713554146998	0.3263432728681642	0.023	0.8131652078441731	0.13487893925912997	0.2179	0.7440962610421287	0.1783748014643955	0.1804	0.7707696903311777	0.2211930517489819	-0.0119	0.5393182707065906	1.395143250421195	0.0008	0.47137655671388623	1.5826407667679967	0.0655	0.5094117599063441	1.4574776849735924	0.1076	0.7451845116153795	1.3790926133804091	-0.01275	0.8948494010061938	1.088526740465798	0.0702	0.9295385318701957	0.9434700087328671	0.1076	0.3882920783770841	1.2776297181045222	-0.01275	0.34275103502484644	0.9612255318149163	0.0702	0.3418807485892955	0.7926108985724426	0.1076
